{
  "accessors": [
    {
      "bufferView": 2,
      "componentType": 5126,
      "count": 2200,
      "max": [
        60.300113677978516,
        40.360260009765625,
        210.0972900390625
      ],
      "min": [
        -60.499927520751953,
        36.216819763183594,
        23.802680969238281
      ],
      "type": "VEC3"
    },
    {
      "bufferView": 2,
      "byteOffset": 26400,
      "componentType": 5126,
      "count": 2200,
      "max": [
        1,
        1,
        1
      ],
      "min": [
        -1,
        -1,
        -1
      ],
      "type": "VEC3"
    },
    {
      "bufferView": 0,
      "componentType": 5125,
      "count": 5832,
      "max": [
        2199
      ],
      "min": [
        0
      ],
      "type": "SCALAR"
    },
    {
      "bufferView": 2,
      "byteOffset": 52800,
      "componentType": 5126,
      "count": 17680,
      "max": [
        49.875282287597656,
        -12.212446212768555,
        173.21563720703125
      ],
      "min": [
        -49.872028350830078,
        -18.626419067382812,
        41.000308990478516
      ],
      "type": "VEC3"
    },
    {
      "bufferView": 2,
      "byteOffset": 264960,
      "componentType": 5126,
      "count": 17680,
      "max": [
        1,
        1,
        1
      ],
      "min": [
        -1,
        -1,
        -1
      ],
      "type": "VEC3"
    },
    {
      "bufferView": 3,
      "componentType": 5126,
      "count": 17680,
      "max": [
        1,
        1,
        1,
        1
      ],
      "min": [
        -1,
        -1,
        -1,
        -1
      ],
      "type": "VEC4"
    },
    {
      "bufferView": 1,
      "componentType": 5126,
      "count": 17680,
      "max": [
        0.99782800674438477,
        0.99831497669219971
      ],
      "min": [
        0.0016700000269338489,
        0.0016210000030696392
      ],
      "type": "VEC2"
    },
    {
      "bufferView": 0,
      "byteOffset": 23328,
      "componentType": 5125,
      "count": 79536,
      "max": [
        17679
      ],
      "min": [
        0
      ],
      "type": "SCALAR"
    },
    {
      "bufferView": 2,
      "byteOffset": 477120,
      "componentType": 5126,
      "count": 2,
      "max": [
        0,
        -13.772645950317383,
        192.28187561035156
      ],
      "min": [
        0,
        -13.922406196594238,
        192.28173828125
      ],
      "type": "VEC3"
    },
    {
      "bufferView": 1,
      "byteOffset": 141440,
      "componentType": 5126,
      "count": 2,
      "max": [
        0,
        0
      ],
      "min": [
        0,
        0
      ],
      "type": "VEC2"
    },
    {
      "bufferView": 0,
      "byteOffset": 341472,
      "componentType": 5125,
      "count": 2,
      "max": [
        1
      ],
      "min": [
        0
      ],
      "type": "SCALAR"
    },
    {
      "bufferView": 2,
      "byteOffset": 477144,
      "componentType": 5126,
      "count": 1171,
      "max": [
        57.100002288818359,
        40.210258483886719,
        194.12443542480469
      ],
      "min": [
        -57.100002288818359,
        -14.150683403015137,
        26.603836059570312
      ],
      "type": "VEC3"
    },
    {
      "bufferView": 2,
      "byteOffset": 491196,
      "componentType": 5126,
      "count": 1171,
      "max": [
        0.99973791837692261,
        0.35490134358406067,
        1
      ],
      "min": [
        -0.99973791837692261,
        -1,
        -1
      ],
      "type": "VEC3"
    },
    {
      "bufferView": 3,
      "byteOffset": 282880,
      "componentType": 5126,
      "count": 1171,
      "max": [
        0.99967974424362183,
        1,
        0.95741802453994751,
        1
      ],
      "min": [
        -0.99967974424362183,
        -1,
        -1,
        -1
      ],
      "type": "VEC4"
    },
    {
      "bufferView": 1,
      "byteOffset": 141456,
      "componentType": 5126,
      "count": 1171,
      "max": [
        0.98357897996902466,
        0.922698974609375
      ],
      "min": [
        0.0024840000551193953,
        0.27617999911308289
      ],
      "type": "VEC2"
    },
    {
      "bufferView": 0,
      "byteOffset": 341480,
      "componentType": 5125,
      "count": 2112,
      "max": [
        1170
      ],
      "min": [
        0
      ],
      "type": "SCALAR"
    },
    {
      "bufferView": 2,
      "byteOffset": 505248,
      "componentType": 5126,
      "count": 15088,
      "max": [
        62.450000762939453,
        40.210258483886719,
        205.60383605957031
      ],
      "min": [
        -62.450000762939453,
        -18.889739990234375,
        -0.001323999953456223
      ],
      "type": "VEC3"
    },
    {
      "bufferView": 2,
      "byteOffset": 686304,
      "componentType": 5126,
      "count": 15088,
      "max": [
        1,
        1,
        1
      ],
      "min": [
        -1,
        -1,
        -1
      ],
      "type": "VEC3"
    },
    {
      "bufferView": 3,
      "byteOffset": 301616,
      "componentType": 5126,
      "count": 15088,
      "max": [
        1,
        1,
        1,
        1
      ],
      "min": [
        -1,
        -1,
        -1,
        -1
      ],
      "type": "VEC4"
    },
    {
      "bufferView": 1,
      "byteOffset": 150824,
      "componentType": 5126,
      "count": 15088,
      "max": [
        0.9973909854888916,
        0.99751800298690796
      ],
      "min": [
        0.0024820000398904085,
        0.0024810000322759151
      ],
      "type": "VEC2"
    },
    {
      "bufferView": 0,
      "byteOffset": 349928,
      "componentType": 5125,
      "count": 49986,
      "max": [
        15087
      ],
      "min": [
        0
      ],
      "type": "SCALAR"
    }
  ],
  "asset": {
    "extras": {
      "author": "Interiors3D (https://sketchfab.com/Interiors3D)",
      "license": "CC-BY-4.0 (http://creativecommons.org/licenses/by/4.0/)",
      "source": "https://sketchfab.com/3d-models/ppa200-757961eb75a64dc689f2047ae8cdbd3b",
      "title": "PPA200"
    },
    "generator": "Sketchfab-9.16.0",
    "version": "2.0"
  },
  "bufferViews": [
    {
      "buffer": 0,
      "byteLength": 549872,
      "byteOffset": 0,
      "name": "floatBufferViews",
      "target": 34963
    },
    {
      "buffer": 0,
      "byteLength": 271528,
      "byteOffset": 549872,
      "byteStride": 8,
      "name": "floatBufferViews",
      "target": 34962
    },
    {
      "buffer": 0,
      "byteLength": 867360,
      "byteOffset": 821400,
      "byteStride": 12,
      "name": "floatBufferViews",
      "target": 34962
    },
    {
      "buffer": 0,
      "byteLength": 543024,
      "byteOffset": 1688760,
      "byteStride": 16,
      "name": "floatBufferViews",
      "target": 34962
    }
  ],
  "buffers": [
    {
      "byteLength": 2231784,
      "uri": "scene.bin"
    }
  ],
  "images": [
    {
      "uri": "textures/Metal.001_baseColor.jpeg"
    },
    {
      "uri": "textures/Metal.001_metallicRoughness.png"
    },
    {
      "uri": "textures/Metal.001_normal.png"
    },
    {
      "uri": "textures/Romance_baseColor.jpeg"
    },
    {
      "uri": "textures/Romance_metallicRoughness.png"
    },
    {
      "uri": "textures/Romance_normal.png"
    }
  ],
  "materials": [
    {
      "doubleSided": true,
      "name": "Metal",
      "pbrMetallicRoughness": {
        "baseColorFactor": [
          0.401978,
          0.401978,
          0.401978,
          1
        ],
        "metallicFactor": 1,
        "roughnessFactor": 0.22899878254809039
      }
    },
    {
      "doubleSided": true,
      "name": "Metal.001",
      "normalTexture": {
        "index": 2,
        "scale": 1,
        "texCoord": 0
      },
      "pbrMetallicRoughness": {
        "baseColorFactor": [
          1,
          1,
          1,
          1
        ],
        "baseColorTexture": {
          "index": 0,
          "texCoord": 0
        },
        "metallicFactor": 1,
        "metallicRoughnessTexture": {
          "index": 1,
          "texCoord": 0
        },
        "roughnessFactor": 1
      }
    },
    {
      "doubleSided": true,
      "name": "Romance",
      "normalTexture": {
        "index": 5,
        "scale": 1,
        "texCoord": 0
      },
      "pbrMetallicRoughness": {
        "baseColorFactor": [
          1,
          1,
          1,
          1
        ],
        "baseColorTexture": {
          "index": 3,
          "texCoord": 0
        },
        "metallicFactor": 0,
        "metallicRoughnessTexture": {
          "index": 4,
          "texCoord": 0
        },
        "roughnessFactor": 1
      }
    }
  ],
  "meshes": [
    {
      "primitives": [
        {
          "attributes": {
            "NORMAL": 1,
            "POSITION": 0
          },
          "indices": 2,
          "material": 0,
          "mode": 4
        }
      ]
    },
    {
      "primitives": [
        {
          "attributes": {
            "NORMAL": 4,
            "POSITION": 3,
            "TANGENT": 5,
            "TEXCOORD_0": 6
          },
          "indices": 7,
          "material": 1,
          "mode": 4
        }
      ]
    },
    {
      "primitives": [
        {
          "attributes": {
            "POSITION": 8,
            "TEXCOORD_0": 9
          },
          "indices": 10,
          "material": 2,
          "mode": 1
        }
      ]
    },
    {
      "primitives": [
        {
          "attributes": {
            "NORMAL": 12,
            "POSITION": 11,
            "TANGENT": 13,
            "TEXCOORD_0": 14
          },
          "indices": 15,
          "material": 2,
          "mode": 4
        }
      ]
    },
    {
      "primitives": [
        {
          "attributes": {
            "NORMAL": 17,
            "POSITION": 16,
            "TANGENT": 18,
            "TEXCOORD_0": 19
          },
          "indices": 20,
          "material": 2,
          "mode": 4
        }
      ]
    }
  ],
  "nodes": [
    {
      "children": [
        1
      ],
      "name": "RootNode (gltf orientation matrix)",
      "rotation": [
        -0.70710678118654746,
        -0,
        -0,
        0.70710678118654757
      ]
    },
    {
      "children": [
        2
      ],
      "name": "RootNode (model correction matrix)"
    },
    {
      "children": [
        3,
        4,
        5,
        6,
        7
      ],
      "name": "W28 - PPA200 - Sketchfab - mesh.obj.cleaner.materialmerger.gles"
    },
    {
      "mesh": 0,
      "name": ""
    },
    {
      "mesh": 1,
      "name": ""
    },
    {
      "mesh": 2,
      "name": ""
    },
    {
      "mesh": 3,
      "name": ""
    },
    {
      "mesh": 4,
      "name": ""
    }
  ],
  "samplers": [
    {
      "magFilter": 9729,
      "minFilter": 9987,
      "wrapS": 10497,
      "wrapT": 10497
    }
  ],
  "scene": 0,
  "scenes": [
    {
      "name": "OSG_Scene",
      "nodes": [
        0
      ]
    }
  ],
  "textures": [
    {
      "sampler": 0,
      "source": 0
    },
    {
      "sampler": 0,
      "source": 1
    },
    {
      "sampler": 0,
      "source": 2
    },
    {
      "sampler": 0,
      "source": 3
    },
    {
      "sampler": 0,
      "source": 4
    },
    {
      "sampler": 0,
      "source": 5
    }
  ]
}

